<?xml version="1.0" standalone="no"?>
<!DOCTYPE svg PUBLIC "-//W3C//DTD SVG 20010904//EN"
 "http://www.w3.org/TR/2001/REC-SVG-20010904/DTD/svg10.dtd">
<svg version="1.0" xmlns="http://www.w3.org/2000/svg"
 width="415.000000pt" height="480.000000pt" viewBox="0 0 415.000000 480.000000"
 preserveAspectRatio="xMidYMid meet">

<g transform="translate(0.000000,480.000000) scale(0.100000,-0.100000)"
fill="#000000" stroke="none">
<path d="M1975 4718 c-16 -6 -46 -21 -65 -34 -19 -13 -444 -378 -945 -811
-693 -601 -916 -799 -934 -832 -48 -87 -22 -204 58 -256 48 -32 125 -45 273
-45 l118 0 2 -812 c3 -812 3 -813 25 -853 31 -57 80 -104 138 -131 l50 -24
1380 0 1380 0 50 24 c59 27 107 72 138 130 l22 41 3 811 2 811 159 5 c145 4
164 7 208 29 99 51 136 173 82 270 -16 29 -88 99 -224 217 -110 95 -204 181
-210 190 -6 10 -12 163 -15 372 -5 340 -6 357 -27 395 -25 47 -84 105 -133
131 -30 17 -64 19 -249 22 -184 3 -221 1 -260 -14 -55 -21 -126 -84 -152 -136
l-20 -39 -144 126 c-80 69 -210 181 -289 250 -172 149 -220 175 -321 174 -38
0 -83 -5 -100 -11z m148 -157 c13 -5 199 -161 413 -345 383 -332 422 -361 438
-320 3 9 6 59 6 112 0 115 16 158 70 184 46 24 331 26 385 4 69 -29 69 -30 75
-426 l5 -355 28 -47 c19 -33 89 -100 227 -220 110 -95 203 -181 206 -191 13
-42 -8 -47 -198 -47 -194 0 -233 -8 -257 -53 -8 -16 -12 -252 -14 -859 -2
-832 -2 -837 -23 -865 -11 -15 -32 -34 -45 -40 -35 -18 -2693 -18 -2728 0 -13
6 -34 25 -45 40 -21 28 -21 35 -26 871 -5 916 -2 861 -61 892 -21 11 -71 14
-207 14 -152 0 -182 2 -193 16 -11 13 -11 20 1 40 18 28 1815 1582 1844 1594
28 12 70 12 99 1z"/>
</g>
</svg>
